<svg xmlns="http://www.w3.org/2000/svg" viewBox="0 0 152 100" font-family="Inter, Helvetica, Arial, sans-serif">
  <rect x="0" y="0" width="152" height="100" fill="#ffffff"/>
  <text x="76" y="8" text-anchor="middle" font-size="5.4" font-weight="600" fill="#0f172a">Three Formations on the Grid</text>
  <text x="76" y="13" text-anchor="middle" font-size="3" fill="#64748b">players at their average (in + out of possession) home position · attack ↑</text>

  <!-- pitch template x3 -->
  <g stroke="#ffffff" stroke-width="0.5" fill="none">
    <rect x="8" y="22" width="40" height="62" fill="#7cc88a" stroke="#ffffff"/>
    <line x1="8" y1="53" x2="48" y2="53"/><circle cx="28" cy="53" r="4"/>
    <rect x="19" y="22" width="18" height="7"/><rect x="19" y="77" width="18" height="7"/>
    <rect x="56" y="22" width="40" height="62" fill="#7cc88a" stroke="#ffffff"/>
    <line x1="56" y1="53" x2="96" y2="53"/><circle cx="76" cy="53" r="4"/>
    <rect x="67" y="22" width="18" height="7"/><rect x="67" y="77" width="18" height="7"/>
    <rect x="104" y="22" width="40" height="62" fill="#7cc88a" stroke="#ffffff"/>
    <line x1="104" y1="53" x2="144" y2="53"/><circle cx="124" cy="53" r="4"/>
    <rect x="115" y="22" width="18" height="7"/><rect x="115" y="77" width="18" height="7"/>
  </g>
  <g font-size="3.6" text-anchor="middle" font-weight="600" fill="#0f172a">
    <text x="28" y="19">4-3-3</text><text x="76" y="19">4-2-3-1</text><text x="124" y="19">3-5-2</text>
  </g>

  <!-- dots: code inside (pale fill, class-colour ring) -->
  <g stroke-width="0.45">
    <!-- 4-3-3 -->
    <circle cx="28" cy="78.83" r="2.7" fill="#fde047" stroke="#ca8a04"/>
    <circle cx="13.78" cy="57.70" r="2.7" fill="#bfdbfe" stroke="#2563eb"/><circle cx="19.4" cy="65.45" r="2.7" fill="#bfdbfe" stroke="#2563eb"/><circle cx="36.6" cy="65.45" r="2.7" fill="#bfdbfe" stroke="#2563eb"/><circle cx="42.23" cy="57.70" r="2.7" fill="#bfdbfe" stroke="#2563eb"/>
    <circle cx="28" cy="56.57" r="2.7" fill="#fde68a" stroke="#d97706"/><circle cx="18.73" cy="52.85" r="2.7" fill="#fde68a" stroke="#d97706"/><circle cx="37.28" cy="52.85" r="2.7" fill="#fde68a" stroke="#d97706"/>
    <circle cx="15.05" cy="46.96" r="2.7" fill="#fecaca" stroke="#dc2626"/><circle cx="28" cy="42.51" r="2.7" fill="#fecaca" stroke="#dc2626"/><circle cx="40.95" cy="46.96" r="2.7" fill="#fecaca" stroke="#dc2626"/>
    <!-- 4-2-3-1 -->
    <circle cx="76" cy="78.83" r="2.7" fill="#fde047" stroke="#ca8a04"/>
    <circle cx="61.78" cy="57.70" r="2.7" fill="#bfdbfe" stroke="#2563eb"/><circle cx="67.4" cy="65.45" r="2.7" fill="#bfdbfe" stroke="#2563eb"/><circle cx="84.6" cy="65.45" r="2.7" fill="#bfdbfe" stroke="#2563eb"/><circle cx="90.23" cy="57.70" r="2.7" fill="#bfdbfe" stroke="#2563eb"/>
    <circle cx="72" cy="56.57" r="2.7" fill="#fde68a" stroke="#d97706"/><circle cx="80" cy="56.57" r="2.7" fill="#fde68a" stroke="#d97706"/><circle cx="65.56" cy="45.40" r="2.7" fill="#fde68a" stroke="#d97706"/><circle cx="76" cy="48.5" r="2.7" fill="#fde68a" stroke="#d97706"/><circle cx="86.44" cy="45.40" r="2.7" fill="#fde68a" stroke="#d97706"/>
    <circle cx="76" cy="41.5" r="2.7" fill="#fecaca" stroke="#dc2626"/>
    <!-- 3-5-2 -->
    <circle cx="124" cy="78.83" r="2.7" fill="#fde047" stroke="#ca8a04"/>
    <circle cx="115.4" cy="65.45" r="2.7" fill="#bfdbfe" stroke="#2563eb"/><circle cx="124" cy="67.52" r="2.7" fill="#bfdbfe" stroke="#2563eb"/><circle cx="132.6" cy="65.45" r="2.7" fill="#bfdbfe" stroke="#2563eb"/><circle cx="109.36" cy="55.74" r="2.7" fill="#bfdbfe" stroke="#2563eb"/><circle cx="138.64" cy="55.74" r="2.7" fill="#bfdbfe" stroke="#2563eb"/>
    <circle cx="124" cy="56.57" r="2.7" fill="#fde68a" stroke="#d97706"/><circle cx="114.73" cy="52.85" r="2.7" fill="#fde68a" stroke="#d97706"/><circle cx="133.28" cy="52.85" r="2.7" fill="#fde68a" stroke="#d97706"/>
    <circle cx="120" cy="42.51" r="2.7" fill="#fecaca" stroke="#dc2626"/><circle cx="128" cy="42.51" r="2.7" fill="#fecaca" stroke="#dc2626"/>
  </g>
  <g font-size="1.65" text-anchor="middle" fill="#0f172a">
    <text x="28" y="79.45">GK</text><text x="13.78" y="58.35">LB</text><text x="19.4" y="66.1">LCB</text><text x="36.6" y="66.1">RCB</text><text x="42.23" y="58.35">RB</text>
    <text x="28" y="57.22">DM</text><text x="18.73" y="53.5">LCM</text><text x="37.28" y="53.5">RCM</text><text x="15.05" y="47.61">LW</text><text x="28" y="43.16">ST</text><text x="40.95" y="47.61">RW</text>
    <text x="76" y="79.45">GK</text><text x="61.78" y="58.35">LB</text><text x="67.4" y="66.1">LCB</text><text x="84.6" y="66.1">RCB</text><text x="90.23" y="58.35">RB</text>
    <text x="72" y="57.22">DM</text><text x="80" y="57.22">DM</text><text x="65.56" y="46.05">LAM</text><text x="76" y="49.15">CAM</text><text x="86.44" y="46.05">RAM</text><text x="76" y="42.15">ST</text>
    <text x="124" y="79.45">GK</text><text x="115.4" y="66.1">LCB</text><text x="124" y="68.17">CB</text><text x="132.6" y="66.1">RCB</text><text x="109.36" y="56.39">LWB</text><text x="138.64" y="56.39">RWB</text>
    <text x="124" y="57.22">DM</text><text x="114.73" y="53.5">LCM</text><text x="133.28" y="53.5">RCM</text><text x="120" y="43.16">ST</text><text x="128" y="43.16">ST</text>
  </g>

  <!-- legend -->
  <g font-size="2.6">
    <circle cx="38" cy="92" r="1.9" fill="#fde047" stroke="#ca8a04" stroke-width="0.4"/><text x="41.5" y="92.9" fill="#334155">GK</text>
    <circle cx="54" cy="92" r="1.9" fill="#bfdbfe" stroke="#2563eb" stroke-width="0.4"/><text x="57.5" y="92.9" fill="#334155">Def</text>
    <circle cx="72" cy="92" r="1.9" fill="#fde68a" stroke="#d97706" stroke-width="0.4"/><text x="75.5" y="92.9" fill="#334155">Mid</text>
    <circle cx="90" cy="92" r="1.9" fill="#fecaca" stroke="#dc2626" stroke-width="0.4"/><text x="93.5" y="92.9" fill="#334155">Fwd</text>
  </g>
  <text x="76" y="98.5" text-anchor="middle" font-size="2.1" fill="#94a3b8">Each dot is at the role's real average position — so full-backs are advanced and the striker sits high.</text>
</svg>
