<svg xmlns="http://www.w3.org/2000/svg" viewBox="0 0 152 120" font-family="Inter, Helvetica, Arial, sans-serif">
  <rect x="0" y="0" width="152" height="120" fill="#ffffff"/>
  <text x="76" y="9" text-anchor="middle" font-size="6" font-weight="600" fill="#0f172a">Where Roles Sit — DEFENCE Phase</text>
  <text x="76" y="15.5" text-anchor="middle" font-size="3.1" fill="#64748b">average position when the team is OUT of possession · to scale · attack →</text>

  <!-- grass + grid + markings -->
  <g><rect x="14" y="20" width="20" height="80" fill="#7cc88a"/><rect x="34" y="20" width="20" height="80" fill="#73c081"/><rect x="54" y="20" width="20" height="80" fill="#7cc88a"/><rect x="74" y="20" width="20" height="80" fill="#73c081"/><rect x="94" y="20" width="20" height="80" fill="#7cc88a"/><rect x="114" y="20" width="20" height="80" fill="#73c081"/></g>
  <g stroke="#ffffff" stroke-width="0.3" stroke-opacity="0.4"><line x1="34" y1="20" x2="34" y2="100"/><line x1="54" y1="20" x2="54" y2="100"/><line x1="74" y1="20" x2="74" y2="100"/><line x1="94" y1="20" x2="94" y2="100"/><line x1="114" y1="20" x2="114" y2="100"/><line x1="14" y1="38" x2="134" y2="38"/><line x1="14" y1="50" x2="134" y2="50"/><line x1="14" y1="70" x2="134" y2="70"/><line x1="14" y1="82" x2="134" y2="82"/></g>
  <g stroke="#ffffff" stroke-width="0.6" fill="none" stroke-opacity="0.95"><rect x="14" y="20" width="120" height="80"/><line x1="74" y1="20" x2="74" y2="100"/><circle cx="74" cy="60" r="9"/><rect x="14" y="38" width="18" height="44"/><rect x="116" y="38" width="18" height="44"/><rect x="14" y="50" width="6" height="20"/><rect x="128" y="50" width="6" height="20"/></g>

  <!-- dots -->
  <g stroke="#ffffff" stroke-width="0.5">
    <circle cx="24" cy="60" r="2.3" fill="#facc15"/>
    <circle cx="41" cy="60" r="2.3" fill="#2563eb"/><circle cx="44" cy="43" r="2.3" fill="#2563eb"/><circle cx="44" cy="77" r="2.3" fill="#2563eb"/>
    <circle cx="53" cy="33.5" r="2.3" fill="#2563eb"/><circle cx="58" cy="31" r="2.3" fill="#2563eb"/><circle cx="53" cy="86.5" r="2.3" fill="#2563eb"/><circle cx="58" cy="89" r="2.3" fill="#2563eb"/>
    <circle cx="61.6" cy="60" r="2.3" fill="#f59e0b"/><circle cx="69" cy="60" r="2.3" fill="#f59e0b"/>
    <circle cx="72" cy="42" r="2.3" fill="#f59e0b"/><circle cx="72" cy="78.7" r="2.3" fill="#f59e0b"/>
    <circle cx="72.4" cy="32" r="2.3" fill="#f59e0b"/><circle cx="72.4" cy="87.9" r="2.3" fill="#f59e0b"/>
    <circle cx="82" cy="60" r="2.3" fill="#f59e0b"/>
    <circle cx="87.8" cy="40" r="2.3" fill="#f59e0b"/><circle cx="87.8" cy="80.2" r="2.3" fill="#f59e0b"/>
    <circle cx="79.2" cy="34" r="2.3" fill="#dc2626"/><circle cx="79.2" cy="86.3" r="2.3" fill="#dc2626"/>
    <circle cx="96" cy="60" r="2.3" fill="#dc2626"/>
  </g>

  <!-- labels -->
  <g font-size="2.1" text-anchor="middle" fill="#0f172a">
    <text x="24" y="66.5">GK*</text>
    <text x="41" y="55.2">CB / DF</text><text x="44" y="39.2">LCB</text><text x="44" y="81.4">RCB</text>
    <text x="49.5" y="30.6">LB</text><text x="61.5" y="28.6">LWB</text><text x="49.5" y="90.4">RB</text><text x="61.5" y="92.4">RWB</text>
    <text x="59" y="66.5">DM</text><text x="70" y="55.2">CM / MF</text>
    <text x="77" y="42.8">LCM</text><text x="77" y="78">RCM</text>
    <text x="72.4" y="28">LM</text><text x="72.4" y="92.2">RM</text>
    <text x="82" y="66.5">CAM</text>
    <text x="91.6" y="39.2">LAM</text><text x="91.6" y="81.2">RAM</text>
    <text x="83.5" y="32.6">LW</text><text x="83.5" y="87.6">RW</text>
    <text x="96" y="55.2">ST / FW</text>
  </g>

  <!-- band/lane guides -->
  <g font-size="2.6" text-anchor="middle" fill="#334155"><text x="24" y="104.5">B1</text><text x="44" y="104.5">B2</text><text x="64" y="104.5">B3</text><text x="84" y="104.5">B4</text><text x="104" y="104.5">B5</text><text x="124" y="104.5">B6</text></g>

  <!-- legend -->
  <g font-size="2.7">
    <circle cx="16" cy="110" r="2" fill="#facc15" stroke="#ffffff" stroke-width="0.4"/><text x="19.5" y="111" fill="#334155">GK</text>
    <circle cx="30" cy="110" r="2" fill="#2563eb" stroke="#ffffff" stroke-width="0.4"/><text x="33.5" y="111" fill="#334155">Def</text>
    <circle cx="46" cy="110" r="2" fill="#f59e0b" stroke="#ffffff" stroke-width="0.4"/><text x="49.5" y="111" fill="#334155">Mid</text>
    <circle cx="62" cy="110" r="2" fill="#dc2626" stroke="#ffffff" stroke-width="0.4"/><text x="65.5" y="111" fill="#334155">Fwd</text>
  </g>
  <line x1="92" y1="110" x2="116" y2="110" stroke="#0f172a" stroke-width="0.6"/><path d="M116 110 l-3 -1.5 l0 3 z" fill="#0f172a"/><text x="104" y="108" text-anchor="middle" font-size="2.6" fill="#0f172a" font-weight="600">attacking direction</text>
  <text x="14" y="116.5" font-size="2.2" fill="#94a3b8">Dots = empirical defence-phase occupancy centroid. *GK at its anchor (separate GK track). CB/DF, CM/MF, ST/FW coincide.</text>
</svg>
